<?xml version="1.0" encoding="UTF-8" standalone="no" ?>
<!DOCTYPE svg PUBLIC "-//W3C//DTD SVG 1.1//EN" "http://www.w3.org/Graphics/SVG/1.1/DTD/svg11.dtd">
<svg xmlns="http://www.w3.org/2000/svg" xmlns:xlink="http://www.w3.org/1999/xlink" version="1.1" width="1280" height="1024" viewBox="0 0 1280 1024" xml:space="preserve">
<desc>Created with Fabric.js 5.3.0</desc>
<defs>
</defs>
<g transform="matrix(1 0 0 1 640 512)" id="background-logo"  >
<rect style="stroke: none; stroke-width: 0; stroke-dasharray: none; stroke-linecap: butt; stroke-dashoffset: 0; stroke-linejoin: miter; stroke-miterlimit: 4; fill: rgb(255,255,255); fill-opacity: 0; fill-rule: nonzero; opacity: 1;"  paint-order="stroke"  x="-640" y="-512" rx="0" ry="0" width="1280" height="1024" />
</g>
<g transform="matrix(1.9211538461538462 0 0 1.9211538461538462 640.7917404605266 567.176115292012)" id="text-logo"  >
<g style=""  paint-order="stroke"   >
		<g transform="matrix(1 0 0 1 0 0)" id="text-logo-path-0"  >
<path style="stroke: none; stroke-width: 0; stroke-dasharray: none; stroke-linecap: butt; stroke-dashoffset: 0; stroke-linejoin: miter; stroke-miterlimit: 4; fill: rgb(171,136,109); fill-rule: nonzero; opacity: 1;"  paint-order="stroke"  transform=" translate(-145.445, 15.15)" d="M 28.49 -22.61 L 28.49 -5.88 Q 28.49 -4.48 28.64 -3.61 Q 28.79 -2.74 29.21 -2.28 Q 29.64 -1.81 30.43 -1.63 Q 31.23 -1.44 32.52 -1.41 L 32.52 -1.41 L 32.52 0 L 20.54 0 L 20.54 -1.41 Q 21.83 -1.44 22.63 -1.63 Q 23.42 -1.81 23.86 -2.26 Q 24.31 -2.7 24.46 -3.51 Q 24.61 -4.33 24.61 -5.62 L 24.61 -5.62 L 24.61 -13.65 L 9.62 -13.65 L 9.62 -5.88 Q 9.62 -4.48 9.77 -3.61 Q 9.92 -2.74 10.34 -2.28 Q 10.77 -1.81 11.56 -1.63 Q 12.36 -1.44 13.65 -1.41 L 13.65 -1.41 L 13.65 0 L 1.66 0 L 1.66 -1.41 Q 2.96 -1.44 3.76 -1.63 Q 4.55 -1.81 5 -2.26 Q 5.44 -2.7 5.59 -3.51 Q 5.73 -4.33 5.73 -5.62 L 5.73 -5.62 L 5.73 -22.87 Q 5.73 -24.16 5.61 -24.96 Q 5.48 -25.75 5.09 -26.21 Q 4.7 -26.68 3.96 -26.84 Q 3.22 -27.01 2.03 -27.08 L 2.03 -27.08 L 2.03 -28.49 L 13.28 -28.49 L 13.28 -27.08 Q 12.1 -27.05 11.38 -26.86 Q 10.66 -26.68 10.27 -26.2 Q 9.88 -25.71 9.75 -24.86 Q 9.62 -24.01 9.62 -22.61 L 9.62 -22.61 L 9.62 -15.5 L 24.61 -15.5 L 24.61 -22.87 Q 24.61 -24.16 24.48 -24.96 Q 24.35 -25.75 23.96 -26.21 Q 23.57 -26.68 22.83 -26.84 Q 22.09 -27.01 20.9 -27.08 L 20.9 -27.08 L 20.9 -28.49 L 32.15 -28.49 L 32.15 -27.08 Q 30.97 -27.05 30.25 -26.86 Q 29.53 -26.68 29.14 -26.2 Q 28.75 -25.71 28.62 -24.86 Q 28.49 -24.01 28.49 -22.61 L 28.49 -22.61 Z M 47.14 -8.03 L 47.14 -10.95 Q 45.03 -10.14 43.57 -9.36 Q 42.11 -8.58 41.22 -7.81 Q 40.33 -7.03 39.94 -6.25 Q 39.55 -5.48 39.55 -4.66 L 39.55 -4.66 Q 39.55 -3.44 40.37 -2.66 Q 41.18 -1.89 42.51 -1.89 L 42.51 -1.89 Q 43.48 -1.89 44.31 -2.37 Q 45.14 -2.85 45.77 -3.68 Q 46.4 -4.51 46.77 -5.64 Q 47.14 -6.77 47.14 -8.03 L 47.14 -8.03 Z M 41.81 -10.21 L 47.14 -12.54 L 47.14 -14.06 Q 47.14 -18.57 43.29 -18.57 L 43.29 -18.57 Q 42.66 -18.57 42.22 -18.46 Q 41.77 -18.35 41.48 -18.09 Q 41.18 -17.83 40.94 -17.35 Q 40.7 -16.87 40.48 -16.17 L 40.48 -16.17 Q 40.07 -15.1 39.68 -14.74 Q 39.29 -14.39 38.55 -14.39 L 38.55 -14.39 Q 36.7 -14.39 36.7 -16.24 L 36.7 -16.24 Q 36.7 -18.02 38.59 -19 Q 40.48 -19.98 43.96 -19.98 L 43.96 -19.98 Q 47.66 -19.98 49.21 -18.67 Q 50.76 -17.35 50.76 -14.21 L 50.76 -14.21 L 50.76 -5.92 Q 50.76 -1.7 52.43 -1.7 L 52.43 -1.7 Q 52.95 -1.7 53.43 -1.83 Q 53.91 -1.96 54.24 -2.52 L 54.24 -2.52 L 54.76 -1.63 Q 54.32 -0.78 53.13 -0.2 Q 51.95 0.37 50.65 0.37 L 50.65 0.37 Q 49.02 0.37 48.23 -0.67 Q 47.43 -1.7 47.43 -3.59 L 47.43 -3.59 L 47.25 -3.59 Q 46.29 -1.78 44.59 -0.72 Q 42.88 0.33 40.81 0.33 L 40.81 0.33 Q 38.48 0.33 37.15 -0.85 Q 35.82 -2.03 35.82 -4.03 L 35.82 -4.03 Q 35.82 -4.92 36.13 -5.73 Q 36.45 -6.55 37.15 -7.29 Q 37.85 -8.03 39 -8.75 Q 40.15 -9.47 41.81 -10.21 L 41.81 -10.21 Z M 71.85 -10.06 L 71.85 -13.69 Q 71.85 -15.21 71.78 -16.08 Q 71.71 -16.95 71.39 -17.41 Q 71.08 -17.87 70.47 -18.04 Q 69.86 -18.2 68.78 -18.31 L 68.78 -18.31 L 68.78 -19.61 L 75.48 -19.61 L 75.48 -8.25 Q 75.48 -6.14 75.54 -4.81 Q 75.59 -3.48 75.7 -2.81 L 75.7 -2.81 Q 75.78 -2.33 75.94 -2.05 Q 76.11 -1.78 76.44 -1.61 Q 76.78 -1.44 77.31 -1.39 Q 77.85 -1.33 78.7 -1.33 L 78.7 -1.33 L 78.7 -0.04 L 72.59 0.41 L 72.19 -4.03 L 72.04 -4.03 Q 70.63 -1.74 68.8 -0.68 Q 66.97 0.37 64.97 0.37 L 64.97 0.37 Q 63.42 0.37 61.96 -0.22 Q 60.49 -0.81 59.75 -1.81 L 59.75 -1.81 Q 59.13 -2.63 58.85 -4.07 Q 58.57 -5.51 58.57 -7.81 L 58.57 -7.81 L 58.57 -13.69 Q 58.57 -15.21 58.5 -16.08 Q 58.42 -16.95 58.11 -17.41 Q 57.79 -17.87 57.18 -18.04 Q 56.57 -18.2 55.5 -18.31 L 55.5 -18.31 L 55.5 -19.61 L 62.2 -19.61 L 62.2 -9.51 Q 62.2 -5.48 63.14 -3.66 Q 64.08 -1.85 66.16 -1.85 L 66.16 -1.85 Q 69.41 -1.85 71.22 -6.1 L 71.22 -6.1 Q 71.41 -6.55 71.52 -6.92 Q 71.63 -7.29 71.71 -7.73 Q 71.78 -8.18 71.82 -8.73 Q 71.85 -9.29 71.85 -10.06 L 71.85 -10.06 Z M 83.44 -1.29 L 82.7 0 L 81.88 0 L 81.88 -6.36 L 82.81 -6.36 Q 84.25 -1.15 88.06 -1.15 L 88.06 -1.15 Q 89.54 -1.15 90.41 -1.87 Q 91.28 -2.59 91.28 -4.07 L 91.28 -4.07 Q 91.28 -4.63 91.11 -5.01 Q 90.95 -5.4 90.48 -5.83 Q 90.02 -6.25 89.19 -6.81 Q 88.36 -7.36 86.99 -8.21 L 86.99 -8.21 Q 85.73 -8.99 84.8 -9.66 Q 83.88 -10.32 83.25 -11.01 Q 82.62 -11.69 82.31 -12.47 Q 81.99 -13.25 81.99 -14.28 L 81.99 -14.28 Q 81.99 -15.54 82.42 -16.59 Q 82.84 -17.65 83.58 -18.39 Q 84.32 -19.13 85.32 -19.55 Q 86.32 -19.98 87.51 -19.98 L 87.51 -19.98 Q 88.5 -19.98 89.58 -19.67 Q 90.65 -19.35 91.46 -18.83 L 91.46 -18.83 L 92.2 -19.61 L 92.91 -19.61 L 92.91 -14.28 L 91.95 -14.28 Q 91.13 -16.54 90.17 -17.5 Q 89.21 -18.46 87.8 -18.46 L 87.8 -18.46 Q 86.54 -18.46 85.78 -17.8 Q 85.03 -17.13 85.03 -15.95 L 85.03 -15.95 Q 85.03 -15.32 85.23 -14.86 Q 85.43 -14.39 85.88 -13.95 Q 86.32 -13.5 87.01 -13.04 Q 87.69 -12.58 88.65 -11.99 L 88.65 -11.99 Q 90.24 -10.99 91.37 -10.21 Q 92.5 -9.43 93.2 -8.68 Q 93.91 -7.92 94.24 -7.1 Q 94.57 -6.29 94.57 -5.25 L 94.57 -5.25 Q 94.57 -2.63 92.87 -1.13 Q 91.17 0.37 88.39 0.37 L 88.39 0.37 Q 85.51 0.37 83.44 -1.29 L 83.44 -1.29 Z M 118.96 -19.98 L 118.96 -19.98 Q 121.06 -19.98 122.95 -19.22 Q 124.84 -18.46 126.26 -17.13 Q 127.69 -15.8 128.52 -13.97 Q 129.35 -12.14 129.35 -9.95 L 129.35 -9.95 Q 129.35 -7.7 128.52 -5.81 Q 127.69 -3.92 126.26 -2.55 Q 124.84 -1.18 122.95 -0.41 Q 121.06 0.37 118.96 0.37 L 118.96 0.37 Q 116.88 0.37 115.01 -0.39 Q 113.15 -1.15 111.74 -2.52 Q 110.33 -3.88 109.52 -5.79 Q 108.71 -7.7 108.71 -9.95 L 108.71 -9.95 Q 108.71 -12.14 109.52 -13.99 Q 110.33 -15.84 111.74 -17.17 Q 113.15 -18.5 115.01 -19.24 Q 116.88 -19.98 118.96 -19.98 Z M 118.96 -18.2 L 118.96 -18.2 Q 117.59 -18.2 116.46 -17.61 Q 115.33 -17.02 114.53 -15.93 Q 113.74 -14.84 113.31 -13.3 Q 112.89 -11.77 112.89 -9.92 L 112.89 -9.92 Q 112.89 -7.99 113.31 -6.44 Q 113.74 -4.88 114.53 -3.79 Q 115.33 -2.7 116.44 -2.11 Q 117.55 -1.52 118.96 -1.52 L 118.96 -1.52 Q 120.36 -1.52 121.51 -2.11 Q 122.66 -2.7 123.47 -3.81 Q 124.28 -4.92 124.73 -6.47 Q 125.17 -8.03 125.17 -9.92 L 125.17 -9.92 Q 125.17 -11.77 124.73 -13.28 Q 124.28 -14.8 123.47 -15.89 Q 122.66 -16.98 121.51 -17.59 Q 120.36 -18.2 118.96 -18.2 Z M 131.94 -17.28 L 131.94 -19.02 L 136.12 -19.02 L 136.12 -21.68 Q 136.12 -25.94 138.36 -28.32 Q 140.6 -30.71 144.74 -30.71 L 144.74 -30.71 Q 147.04 -30.71 148.48 -30.01 Q 149.92 -29.3 149.92 -28.19 L 149.92 -28.19 Q 149.92 -27.45 149.46 -26.95 Q 149 -26.45 148.3 -26.45 L 148.3 -26.45 Q 147.85 -26.45 147.35 -26.73 Q 146.85 -27.01 146.04 -27.68 L 146.04 -27.68 Q 145.11 -28.45 144.6 -28.69 Q 144.08 -28.93 143.38 -28.93 L 143.38 -28.93 Q 141.16 -28.93 140.19 -26.68 L 140.19 -26.68 Q 139.86 -25.94 139.73 -24.86 Q 139.6 -23.79 139.6 -21.9 L 139.6 -21.9 L 139.6 -19.02 L 145.56 -19.02 L 145.56 -17.28 L 139.6 -17.28 L 139.6 -5.96 Q 139.6 -4.59 139.77 -3.7 Q 139.93 -2.81 140.36 -2.28 Q 140.79 -1.74 141.53 -1.54 Q 142.27 -1.33 143.45 -1.29 L 143.45 -1.29 L 143.45 0 L 132.94 0 L 132.94 -1.29 Q 133.98 -1.33 134.61 -1.5 Q 135.24 -1.66 135.57 -2.13 Q 135.9 -2.59 136.01 -3.42 Q 136.12 -4.25 136.12 -5.66 L 136.12 -5.66 L 136.12 -17.28 L 131.94 -17.28 Z M 181.82 -26.2 L 182.48 -28.49 L 183.52 -28.49 L 183.85 -19.98 L 182.48 -19.98 Q 181.67 -23.24 179.34 -25.09 Q 177.01 -26.94 173.72 -26.94 L 173.72 -26.94 Q 171.46 -26.94 169.68 -26.05 Q 167.91 -25.16 166.69 -23.49 Q 165.46 -21.83 164.82 -19.43 Q 164.17 -17.02 164.17 -13.99 L 164.17 -13.99 Q 164.17 -8.03 166.65 -4.83 Q 169.13 -1.63 173.83 -1.63 L 173.83 -1.63 Q 180.97 -1.63 183 -9.21 L 183 -9.21 L 184.52 -9.21 L 184.52 0 L 183.22 0 L 182.37 -2.92 Q 178.49 0.37 172.98 0.37 L 172.98 0.37 Q 169.83 0.37 167.3 -0.63 Q 164.76 -1.63 162.97 -3.46 Q 161.17 -5.29 160.19 -7.92 Q 159.21 -10.54 159.21 -13.76 L 159.21 -13.76 Q 159.21 -17.13 160.25 -19.91 Q 161.28 -22.68 163.15 -24.68 Q 165.02 -26.68 167.63 -27.77 Q 170.24 -28.86 173.38 -28.86 L 173.38 -28.86 Q 175.6 -28.86 177.56 -28.23 Q 179.52 -27.6 181.82 -26.2 L 181.82 -26.2 Z M 194.36 -10.62 L 194.36 -5.88 Q 194.36 -4.37 194.44 -3.48 Q 194.51 -2.59 194.82 -2.13 Q 195.14 -1.66 195.73 -1.52 Q 196.32 -1.37 197.4 -1.29 L 197.4 -1.29 L 197.4 0 L 187.55 0 L 187.55 -1.29 Q 188.63 -1.37 189.26 -1.52 Q 189.88 -1.66 190.22 -2.11 Q 190.55 -2.55 190.64 -3.39 Q 190.74 -4.22 190.74 -5.62 L 190.74 -5.62 L 190.74 -21.13 Q 190.74 -23.31 190.68 -24.61 Q 190.62 -25.9 190.48 -26.57 L 190.48 -26.57 Q 190.4 -27.01 190.24 -27.29 Q 190.07 -27.56 189.74 -27.73 Q 189.4 -27.9 188.85 -27.97 Q 188.29 -28.05 187.48 -28.05 L 187.48 -28.05 L 187.48 -29.3 L 194.29 -30.71 L 194.29 -16.61 L 194.44 -16.61 Q 194.99 -17.35 195.82 -17.96 Q 196.66 -18.57 197.62 -19.02 Q 198.58 -19.46 199.63 -19.72 Q 200.69 -19.98 201.69 -19.98 L 201.69 -19.98 Q 203.39 -19.98 204.81 -19.39 Q 206.24 -18.8 207.02 -17.8 L 207.02 -17.8 Q 207.64 -16.95 207.94 -15.56 Q 208.24 -14.17 208.24 -11.8 L 208.24 -11.8 L 208.24 -5.88 Q 208.24 -4.37 208.31 -3.5 Q 208.38 -2.63 208.7 -2.15 Q 209.01 -1.66 209.61 -1.52 Q 210.2 -1.37 211.27 -1.29 L 211.27 -1.29 L 211.27 0 L 201.47 0 L 201.47 -1.29 Q 202.5 -1.33 203.13 -1.5 Q 203.76 -1.66 204.07 -2.11 Q 204.39 -2.55 204.48 -3.39 Q 204.57 -4.22 204.57 -5.62 L 204.57 -5.62 L 204.57 -10.29 Q 204.57 -14.43 203.61 -16.19 Q 202.65 -17.95 200.39 -17.95 L 200.39 -17.95 Q 198.65 -17.95 197.23 -17.06 Q 195.8 -16.17 194.99 -14.61 L 194.99 -14.61 Q 194.81 -14.21 194.68 -13.86 Q 194.55 -13.5 194.47 -13.06 Q 194.4 -12.62 194.38 -12.04 Q 194.36 -11.47 194.36 -10.62 L 194.36 -10.62 Z M 225.03 -8.03 L 225.03 -10.95 Q 222.93 -10.14 221.46 -9.36 Q 220 -8.58 219.11 -7.81 Q 218.23 -7.03 217.84 -6.25 Q 217.45 -5.48 217.45 -4.66 L 217.45 -4.66 Q 217.45 -3.44 218.26 -2.66 Q 219.08 -1.89 220.41 -1.89 L 220.41 -1.89 Q 221.37 -1.89 222.2 -2.37 Q 223.04 -2.85 223.67 -3.68 Q 224.29 -4.51 224.66 -5.64 Q 225.03 -6.77 225.03 -8.03 L 225.03 -8.03 Z M 219.71 -10.21 L 225.03 -12.54 L 225.03 -14.06 Q 225.03 -18.57 221.19 -18.57 L 221.19 -18.57 Q 220.56 -18.57 220.11 -18.46 Q 219.67 -18.35 219.37 -18.09 Q 219.08 -17.83 218.84 -17.35 Q 218.6 -16.87 218.37 -16.17 L 218.37 -16.17 Q 217.97 -15.1 217.58 -14.74 Q 217.19 -14.39 216.45 -14.39 L 216.45 -14.39 Q 214.6 -14.39 214.6 -16.24 L 214.6 -16.24 Q 214.6 -18.02 216.49 -19 Q 218.37 -19.98 221.85 -19.98 L 221.85 -19.98 Q 225.55 -19.98 227.11 -18.67 Q 228.66 -17.35 228.66 -14.21 L 228.66 -14.21 L 228.66 -5.92 Q 228.66 -1.7 230.33 -1.7 L 230.33 -1.7 Q 230.84 -1.7 231.32 -1.83 Q 231.81 -1.96 232.14 -2.52 L 232.14 -2.52 L 232.66 -1.63 Q 232.21 -0.78 231.03 -0.2 Q 229.84 0.37 228.55 0.37 L 228.55 0.37 Q 226.92 0.37 226.13 -0.67 Q 225.33 -1.7 225.33 -3.59 L 225.33 -3.59 L 225.15 -3.59 Q 224.18 -1.78 222.48 -0.72 Q 220.78 0.33 218.71 0.33 L 218.71 0.33 Q 216.38 0.33 215.04 -0.85 Q 213.71 -2.03 213.71 -4.03 L 213.71 -4.03 Q 213.71 -4.92 214.03 -5.73 Q 214.34 -6.55 215.04 -7.29 Q 215.75 -8.03 216.89 -8.75 Q 218.04 -9.47 219.71 -10.21 L 219.71 -10.21 Z M 240.83 -7.14 L 240.83 -5.88 Q 240.83 -4.37 240.91 -3.48 Q 240.98 -2.59 241.3 -2.13 Q 241.61 -1.66 242.2 -1.52 Q 242.79 -1.37 243.87 -1.29 L 243.87 -1.29 L 243.87 0 L 234.03 0 L 234.03 -1.29 Q 235.1 -1.33 235.73 -1.5 Q 236.36 -1.66 236.69 -2.11 Q 237.02 -2.55 237.11 -3.39 Q 237.21 -4.22 237.21 -5.62 L 237.21 -5.62 L 237.21 -9.95 Q 237.21 -12.47 237.15 -13.88 Q 237.1 -15.28 236.78 -15.95 Q 236.47 -16.61 235.8 -16.74 Q 235.13 -16.87 233.95 -16.87 L 233.95 -16.87 L 233.95 -18.17 L 240.43 -19.57 L 240.94 -14.98 L 241.09 -14.98 Q 241.57 -16.09 242.29 -17.02 Q 243.02 -17.95 243.87 -18.59 Q 244.72 -19.24 245.64 -19.61 Q 246.57 -19.98 247.53 -19.98 L 247.53 -19.98 Q 248.71 -19.98 249.4 -19.41 Q 250.08 -18.83 250.08 -17.87 L 250.08 -17.87 Q 250.08 -16.98 249.53 -16.48 Q 248.97 -15.98 247.94 -15.98 L 247.94 -15.98 Q 247.34 -15.98 246.94 -16.13 Q 246.53 -16.28 246.22 -16.45 Q 245.9 -16.61 245.62 -16.76 Q 245.35 -16.91 245.01 -16.91 L 245.01 -16.91 Q 244.01 -16.91 243.02 -15.63 Q 242.02 -14.36 241.46 -12.39 L 241.46 -12.39 Q 241.17 -11.32 241 -9.97 Q 240.83 -8.62 240.83 -7.14 L 240.83 -7.14 Z M 258.44 -10.62 L 258.44 -5.92 Q 258.44 -4.37 258.52 -3.48 Q 258.59 -2.59 258.91 -2.13 Q 259.22 -1.66 259.81 -1.52 Q 260.41 -1.37 261.48 -1.29 L 261.48 -1.29 L 261.48 0 L 251.64 0 L 251.64 -1.29 Q 252.71 -1.37 253.34 -1.52 Q 253.97 -1.66 254.3 -2.11 Q 254.63 -2.55 254.73 -3.39 Q 254.82 -4.22 254.82 -5.62 L 254.82 -5.62 L 254.82 -10.36 Q 254.82 -12.47 254.76 -13.88 Q 254.71 -15.28 254.56 -15.8 L 254.56 -15.8 Q 254.45 -16.28 254.3 -16.56 Q 254.15 -16.84 253.82 -17 Q 253.49 -17.17 252.95 -17.22 Q 252.41 -17.28 251.56 -17.28 L 251.56 -17.28 L 251.56 -18.57 L 257.59 -19.98 L 258.07 -16.28 L 258.26 -16.28 Q 259.93 -18.17 261.76 -19.07 Q 263.59 -19.98 265.81 -19.98 L 265.81 -19.98 Q 268.14 -19.98 269.73 -19.04 Q 271.32 -18.09 271.95 -16.32 L 271.95 -16.32 L 272.1 -16.32 Q 273.47 -18.06 275.43 -19.02 Q 277.39 -19.98 279.61 -19.98 L 279.61 -19.98 Q 281.35 -19.98 282.77 -19.41 Q 284.2 -18.83 284.94 -17.83 L 284.94 -17.83 Q 285.6 -16.98 285.88 -15.6 Q 286.16 -14.21 286.16 -11.8 L 286.16 -11.8 L 286.16 -5.92 Q 286.16 -4.4 286.25 -3.51 Q 286.34 -2.63 286.64 -2.15 Q 286.94 -1.66 287.55 -1.52 Q 288.16 -1.37 289.23 -1.29 L 289.23 -1.29 L 289.23 0 L 279.39 0 L 279.39 -1.29 Q 280.42 -1.33 281.05 -1.5 Q 281.68 -1.66 282.01 -2.13 Q 282.35 -2.59 282.44 -3.4 Q 282.53 -4.22 282.53 -5.62 L 282.53 -5.62 L 282.53 -10.29 Q 282.53 -12.39 282.31 -13.86 Q 282.09 -15.32 281.57 -16.22 Q 281.05 -17.13 280.22 -17.54 Q 279.39 -17.95 278.2 -17.95 L 278.2 -17.95 Q 276.57 -17.95 275.15 -17.04 Q 273.73 -16.13 272.91 -14.61 L 272.91 -14.61 Q 272.73 -14.24 272.6 -13.89 Q 272.47 -13.54 272.39 -13.12 Q 272.32 -12.69 272.3 -12.1 Q 272.28 -11.51 272.28 -10.62 L 272.28 -10.62 L 272.28 -5.92 Q 272.28 -4.4 272.36 -3.51 Q 272.43 -2.63 272.75 -2.15 Q 273.06 -1.66 273.69 -1.52 Q 274.32 -1.37 275.39 -1.29 L 275.39 -1.29 L 275.39 0 L 265.55 0 L 265.55 -1.29 Q 266.58 -1.37 267.21 -1.52 Q 267.84 -1.66 268.16 -2.11 Q 268.47 -2.55 268.56 -3.39 Q 268.66 -4.22 268.66 -5.62 L 268.66 -5.62 L 268.66 -10.29 Q 268.66 -12.43 268.44 -13.89 Q 268.21 -15.35 267.71 -16.26 Q 267.21 -17.17 266.4 -17.56 Q 265.59 -17.95 264.4 -17.95 L 264.4 -17.95 Q 262.74 -17.95 261.28 -17.04 Q 259.81 -16.13 259.07 -14.61 L 259.07 -14.61 Q 258.89 -14.24 258.76 -13.89 Q 258.63 -13.54 258.56 -13.12 Q 258.48 -12.69 258.46 -12.1 Q 258.44 -11.51 258.44 -10.62 L 258.44 -10.62 Z" stroke-linecap="round" />
</g>
</g>
</g>
<g transform="matrix(1.626680880033056 0 0 1.626680880033056 640.0986842105265 343.7811445001503)" id="shape-48730f71-2190-4898-9878-92e56dc8554b"  >
<g style=""  paint-order="stroke"   >
		<g transform="matrix(1 0 0 1 0 0)" id="path-01_00000031181987442743877950000016769926626871089042_"  >
<path style="stroke: none; stroke-width: 1; stroke-dasharray: none; stroke-linecap: butt; stroke-dashoffset: 0; stroke-linejoin: miter; stroke-miterlimit: 4; fill: rgb(0,0,0); fill-rule: nonzero; opacity: 1;"  paint-order="stroke"  transform=" translate(-150, -111.956895)" d="M 266.24908 206.51198 L 266.24908 183.14686999999998 L 278.1629 199.47853999999998 L 299.99913999999995 199.47853999999998 L 157.12491 3.62336 C 155.46396 1.3456199999999998 152.81577 -0.000020000000000131024 149.99875 -0.000020000000000131024 C 147.18173000000002 -0.000020000000000131024 144.53183 1.3456199999999998 142.87259 3.62336 L 66.13734 108.81494 L 66.13734 68.97115 L 38.80958 68.97115 L 38.80958 146.27724999999998 L 0 199.47853 L 21.83631 199.47853 L 33.75013 183.14699000000002 L 33.75013 206.51198000000002 L 0.00085 206.51198000000002 L 0.00085 211.80489000000003 L 300 211.80489000000003 L 300 206.51198000000002 L 266.24908 206.51198000000002 z M 181.99313 67.6487 L 118.00478000000001 67.6487 L 132.81314 47.34883000000001 L 167.18436 47.34883000000001 L 181.99313 67.6487 z M 149.99875 23.79054 L 165.25375 44.702380000000005 L 134.74367999999998 44.702380000000005 L 149.99875 23.79054 z M 40.80732 185.02156 L 126.31503000000001 185.02156 L 126.31503000000001 182.37511 L 40.80732 182.37511 L 40.80732 173.4728 L 49.121469999999995 162.07525 L 126.31503000000001 162.07525 L 126.31503000000001 159.42880000000002 L 51.05201 159.42880000000002 L 65.85951 139.13066000000003 L 126.95894 139.13066000000003 C 127.31819 138.17042000000004 127.81697 137.28032000000005 128.43594 136.48421000000005 L 67.79012 136.48421000000005 L 82.59847 116.18434000000005 L 129.69932 116.18434000000005 C 129.08293 115.37984000000004 128.57163 114.49293000000004 128.19047 113.53789000000005 L 84.52901 113.53789000000005 L 99.33657 93.23976000000005 L 127.39009999999999 93.23976000000005 L 127.39009999999999 90.59330000000004 L 101.26710999999999 90.59330000000004 L 116.07417999999998 70.29517000000004 L 183.92373999999998 70.29517000000004 L 198.73125 90.59330000000004 L 172.6091 90.59330000000004 L 172.6091 93.23976000000005 L 200.66179 93.23976000000005 L 215.46929 113.53789000000005 L 171.80918 113.53789000000005 C 171.42802 114.49294000000005 170.91672 115.37984000000004 170.30033 116.18434000000005 L 217.39989 116.18434000000005 L 232.20867 136.48421000000005 L 171.5637 136.48421000000005 C 172.18223 137.28032000000005 172.68144 138.17043000000004 173.04026000000002 139.13066000000003 L 234.13927 139.13066000000003 L 248.94677000000001 159.42880000000002 L 173.68418000000003 159.42880000000002 L 173.68418000000003 162.07525 L 250.87731000000002 162.07525 L 259.19190000000003 173.4728 L 259.19190000000003 182.37511 L 173.68418000000003 182.37511 L 173.68418000000003 185.02156 L 259.19190000000003 185.02156 L 259.19190000000003 206.51198 L 168.39170000000001 206.51198 L 168.39170000000001 142.63867 C 168.39170000000001 140.00664999999998 166.25828 137.87288999999998 163.62601 137.87288999999998 L 136.3732 137.87288999999998 C 133.74094 137.87288999999998 131.60751 140.00664999999998 131.60751 142.63867 L 131.60751 206.51198 L 40.80732 206.51198 L 40.80732 185.02156 z M 37.27869 218.6209 L 262.72052 218.6209 L 262.72052 223.91381 L 37.27869 223.91381 L 37.27869 218.6209 z M 148.23489 96.21066 L 132.6835 96.21066 L 132.6835 86.54088 C 132.6835 83.29289 135.31656 80.65981000000001 138.56479000000002 80.65981000000001 L 148.23489 80.65981000000001 L 148.23489 96.21066 z M 161.43442 115.29141 L 151.76345999999998 115.29141 L 151.76345999999998 99.73926 L 167.31527999999997 99.73926 L 167.31527999999997 109.41043 C 167.31528 112.65842 164.68216 115.29141 161.43442 115.29141 z M 167.31528 96.21066 L 151.76346 96.21066 L 151.76346 80.65981 L 161.43442000000002 80.65981 C 164.68216 80.65981 167.31528000000003 83.29289999999999 167.31528000000003 86.54087999999999 L 167.31528000000003 96.21066 z M 132.6835 109.41043 L 132.6835 99.73926 L 148.23489 99.73926 L 148.23489 115.29141 L 138.56479000000002 115.29141 C 135.31656 115.29141 132.6835 112.65842 132.6835 109.41043 z" stroke-linecap="round" />
</g>
</g>
</g>
<g transform="matrix(2.4626825904027245 0 0 2.4626825904027245 640.0986842105265 649.6531957075584)" id="shape-84ed48f7-fdec-4059-a350-8cfca5d004f6"  >
<g style=""  paint-order="stroke"   >
		<g transform="matrix(1 0 0 1 -36.53065941926013 2.0881698337469317)" id="Layer_1"  >
<path style="stroke: none; stroke-width: 1; stroke-dasharray: none; stroke-linecap: butt; stroke-dashoffset: 0; stroke-linejoin: miter; stroke-miterlimit: 4; fill: rgb(0,0,0); fill-rule: nonzero; opacity: 1;"  paint-order="stroke"  transform=" translate(-63.44434058073987, -16.592025929895357)" d="M 107.06 29 C 106.17671785889873 28.994986426690236 105.3032002435062 28.8148446616482 104.49000000000001 28.47 C 101.48953814847863 27.271985916319966 99.99679014587728 23.895532100912163 101.13000000000001 20.870000000000005 C 101.64229531451043 19.24465531195708 102.57758661048551 17.784772587981212 103.84 16.64 L 102.67 16 C 94.76 11.469999999999999 86.58 6.779999999999999 77.17 5.789999999999999 C 71.55 5.1899999999999995 63.04 6.129999999999999 59.67 10.669999999999998 C 61.18746996158137 11.504285957733059 62.49144318248207 12.678204106732903 63.480000000000004 14.099999999999993 C 64.30666377937506 15.3981939143531 64.44848130800594 17.017899372926898 63.86000000000001 18.439999999999998 C 63.37149912391238 19.362226316269 62.4136158025542 19.93926446166549 61.370000000000005 19.939999999999998 C 60.19738193665849 19.988560303835893 59.0757987834928 19.457677611337466 58.370000000000005 18.519999999999996 C 57.16250857065587 16.8001113458408 56.727553993465605 14.65433543170214 57.17 12.599999999999998 C 57.30411556349809 12.132628062285658 57.478086994892934 11.677625857099137 57.690000000000005 11.239999999999998 L 57.09 11 C 51.040000000000006 8.54 44.160000000000004 11.36 39.09 13.42 C 32.58942140513941 16.19936983404725 25.609026306949325 17.683765288017597 18.54 17.79 L 18.480000000000004 17.79 C 15.21 17.75 4.07 17.17 0.09 10 C -0.06835790590486629 9.65639840579203 0.06623039221981655 9.248846720589258 0.39806882231727314 9.06712567553589 C 0.7299072524147296 8.88540463048252 1.1457844456095558 8.991510927581752 1.3499999999999999 9.31 C 4.21 14.510000000000002 12.1 16.37 18.53 16.380000000000003 L 18.59 16.380000000000003 C 25.469847767798537 16.27046256397571 32.26268504980766 14.823588222907777 38.59000000000002 12.120000000000012 C 43.85 9.91 51 7 57.63 9.65 C 57.88 9.75 58.13 9.85 58.370000000000005 9.97 C 62.230000000000004 4.410000000000001 72.07000000000001 3.7800000000000002 77.32000000000001 4.340000000000001 C 87.03 5.340000000000001 95.72 10.34 103.38000000000001 14.73 L 104.59 15.42 L 104.99000000000001 15.65 C 108.17669789411411 13.349598681618044 111.87745407318685 11.8631168397456 115.76999999999998 11.32000000000001 C 119.24000000000001 10.81 124.95000000000002 11.32 126.44000000000001 14.85 C 127.06126582840656 16.247849665460215 126.99846162873443 17.8548983041292 126.27000000000001 19.2 C 125.19577417311297 21.031253369814177 123.36425097869157 22.2913413275761 121.27000000000001 22.64 C 116.78000000000002 23.52 112.67000000000002 21.560000000000002 109.17000000000002 19.64 C 107.81000000000002 18.91 106.46000000000002 18.14 105.17000000000002 17.380000000000003 C 103.94332818917532 18.399962818483903 103.02845486870838 19.74454936523076 102.53000000000002 21.259999999999998 C 101.36000000000001 25.26 104.17000000000002 26.770000000000003 105.06000000000002 27.14 C 106.96000000000002 27.94 109.06000000000002 27.560000000000002 109.74000000000001 26.29 C 109.8668292844174 26.064922678357856 110.10410169777693 25.92460527418761 110.36243901834348 25.921903995615807 C 110.62077633891003 25.919202717044005 110.86093098219432 26.054527952545467 110.99243901834348 26.276903995615807 C 111.12394705449263 26.49928003868615 111.1268292844174 26.774922678357857 111 27 C 110.14972595835022 28.33535977074355 108.63980536034717 29.101816927090283 107.06 29 Z M 106.36 16.43 C 107.52 17.09 108.7 17.759999999999998 109.87 18.43 C 113.15 20.19 117 22 121 21.23 C 122.66839296226496 20.969333584918434 124.13430239299744 19.97984471917401 125 18.529999999999998 C 125.52892401383257 17.566879155170454 125.5733846756364 16.410901948270666 125.12 15.410000000000002 C 124.01 12.79 119.12 12.27 115.98 12.73 C 112.5362931040862 13.225746166356588 109.2483546115358 14.49033789426059 106.36 16.430000000000007 Z M 58.93 11.86 C 58.75909190313603 12.21410683124023 58.61858634098916 12.58209758924394 58.51 12.96 C 58.190481806927394 14.570137030832424 58.52901058476548 16.241172700160824 59.449999999999996 17.599999999999998 C 59.874605070062934 18.191593777694084 60.57312396621182 18.52386222559193 61.3 18.479999999999997 C 61.829550131727814 18.505805892496742 62.32706475960443 18.22595391431614 62.58 17.759999999999998 C 62.9359330286167 16.794709601630494 62.82130055957559 15.718643521276851 62.269999999999996 14.85 C 61.40456465480711 13.606954276113983 60.26088038035972 12.583117156174557 58.92999999999999 11.86 Z" stroke-linecap="round" />
</g>
		<g transform="matrix(1 0 0 1 36.585659419260104 2.0881698337469317)" id="Layer_1"  >
<path style="stroke: none; stroke-width: 1; stroke-dasharray: none; stroke-linecap: butt; stroke-dashoffset: 0; stroke-linejoin: miter; stroke-miterlimit: 4; fill: rgb(0,0,0); fill-rule: nonzero; opacity: 1;"  paint-order="stroke"  transform=" translate(-136.5606594192601, -16.592025929895357)" d="M 92.94 29 C 91.36019463965283 29.101816927090283 89.85027404164978 28.33535977074355 89 27 C 88.85289420548531 26.66102206459028 88.98628269257522 26.265714538998868 89.30869244384208 26.08516507828942 C 89.63110219510894 25.904615617579978 90.03784875890376 25.997447514675944 90.25 26.3 C 91 27.57 93.06 28 95 27.15 C 95.89 26.779999999999998 98.7 25.25 97.53 21.27 C 97.03154513129164 19.754549365230762 96.1166718108247 18.409962818483905 94.89 17.39 C 93.56 18.150000000000002 92.21 18.92 90.89 19.65 C 87.39 21.56 83.28 23.52 78.79 22.65 C 76.69574902130846 22.301341327576097 74.86422582688705 21.041253369814175 73.79 19.209999999999997 C 73.06153837126558 17.8648983041292 72.99873417159345 16.257849665460213 73.62 14.86 C 75.11 11.329999999999998 80.82000000000001 10.859999999999998 84.29 11.329999999999998 C 88.15725019908153 11.88111537692887 91.83267976455845 13.363641588213682 95 15.649999999999995 L 95.4 15.42 L 96.61 14.73 C 104.27 10.34 112.96000000000001 5.360000000000001 122.67 4.34 C 127.92 3.78 137.76 4.41 141.62 9.969999999999999 C 141.86 9.85 142.11 9.749999999999998 142.36 9.649999999999999 C 148.95000000000002 6.959999999999999 156.15 9.909999999999998 161.36 12.069999999999999 C 167.68731495019236 14.773588222907756 174.48015223220145 16.22046256397569 181.35999999999999 16.32999999999999 L 181.42000000000002 16.33 C 187.85000000000002 16.33 195.74 14.459999999999997 198.60000000000002 9.259999999999998 C 198.80421555439048 8.941510927581785 199.22009274758528 8.83540463048258 199.55193117768272 9.017125675535938 C 199.88376960778015 9.198846720589298 200.01835790590485 9.606398405792035 199.86 9.949999999999998 C 195.86 17.169999999999998 184.74 17.749999999999996 181.42000000000002 17.759999999999998 C 174.33058360692362 17.662851693246516 167.32881495136556 16.17824572406704 160.81 13.389999999999986 C 155.81 11.329999999999997 148.91 8.509999999999998 142.81 10.969999999999997 L 142.25 11.209999999999997 C 142.46191300510708 11.647625857099136 142.63588443650193 12.102628062285662 142.77 12.57 C 143.2124460065344 14.624335431702137 142.77749142934414 16.7701113458408 141.57000000000002 18.49 C 140.8630824880946 19.42630392457794 139.74226485726254 19.956824269838446 138.57000000000002 19.909999999999997 C 137.52638419744582 19.90926446166549 136.56850087608765 19.332226316268997 136.08 18.409999999999997 C 135.4915186919941 16.9878993729269 135.63333622062495 15.368193914353101 136.46 14.069999999999997 C 137.44855681751793 12.648204106732907 138.75253003841863 11.474285957733057 140.27 10.639999999999997 C 137 6.1 128.45 5.16 122.83 5.76 C 113.42 6.76 105.24 11.44 97.33 15.97 L 96.16 16.64 C 97.42241338951449 17.784772587981212 98.35770468548957 19.24465531195708 98.86999999999999 20.869999999999997 C 100.00320985412272 23.895532100912163 98.51046185152137 27.271985916319963 95.50999999999999 28.47 C 94.6967997564938 28.8148446616482 93.82328214110127 28.99498642669024 92.94 29 Z M 81.87 12.58 C 79 12.58 75.75 13.34 74.87 15.41 C 74.41969169296921 16.41246246722949 74.4678587955464 17.568472929082365 75 18.53 C 75.86569760700256 19.979844719174015 77.33160703773504 20.969333584918434 79 21.23 C 83 22.03 86.86 20.23 90.14 18.4 C 91.31 17.759999999999998 92.49 17.09 93.65 16.4 C 90.7501354884846 14.46676605926241 87.45166252728482 13.212320901997828 83.99999999999999 12.729999999999997 C 83.29413217962511 12.632626509354374 82.58254799947865 12.58251494737223 81.87 12.580000000000002 Z M 141.07 11.86 C 139.73803039496264 12.585965418853956 138.59425314426025 13.613310254814191 137.73 14.86 C 137.1786994404244 15.728643521276851 137.06406697138328 16.804709601630496 137.42 17.77 C 137.67293524039556 18.23595391431614 138.1704498682722 18.515805892496743 138.7 18.49 C 139.42613336183825 18.530065141869184 140.12291771222618 18.198621775198163 140.54999999999998 17.61 C 141.4709894152345 16.251172700160826 141.8095181930726 14.580137030832425 141.48999999999998 12.97 C 141.38195152588082 12.588686163343384 141.2414378751658 12.217328657882218 141.07 11.859999999999998 Z" stroke-linecap="round" />
</g>
		<g transform="matrix(1 0 0 1 0.02500000000001279 -9.624507918721317)" id="Layer_1"  >
<path style="stroke: none; stroke-width: 1; stroke-dasharray: none; stroke-linecap: butt; stroke-dashoffset: 0; stroke-linejoin: miter; stroke-miterlimit: 4; fill: rgb(0,0,0); fill-rule: nonzero; opacity: 1;"  paint-order="stroke"  transform=" translate(-100, -4.879348177427108)" d="M 100 9.76 C 99.84865691958213 9.759290016399301 99.70150045449472 9.710237861370162 99.58 9.62 C 96 7 83.14 0 71.94 1.7 C 71.75401414653683 1.7315843448668893 71.5631531589417 1.686763264506004 71.41066764640529 1.5756935701893497 C 71.25818213386886 1.4646238758726955 71.15698200163601 1.2967090788280131 71.13 1.1099999999999999 C 71.09845134988316 0.9213614435487025 71.14434242462433 0.72797276412729 71.2572824934793 0.5736213366921687 C 71.37022256233425 0.41926990925704755 71.54065852591575 0.3170116363041652 71.72999999999999 0.2899999999999999 C 83.08 -1.46 95.57 5.12 100 8.17 C 104.43 5.17 116.92 -1.4499999999999993 128.27 0.29000000000000004 C 128.45934147408425 0.31701163630416523 128.62977743766575 0.41926990925704766 128.7427175065207 0.5736213366921687 C 128.8556575753757 0.72797276412729 128.90154865011684 0.9213614435487029 128.87 1.1100000000000003 C 128.843017998364 1.2967090788280131 128.74181786613113 1.4646238758726955 128.58933235359473 1.5756935701893497 C 128.4368468410583 1.686763264506004 128.24598585346317 1.731584344866889 128.06 1.6999999999999997 C 116.86 0 104 7 100.42 9.62 C 100.29849954550528 9.710237861370162 100.15134308041787 9.759290016399301 100 9.76 Z" stroke-linecap="round" />
</g>
</g>
</g>
</svg>